<?xml version='1.0' encoding='utf-8'?>
<svg xmlns="http://www.w3.org/2000/svg" width="1920" height="1080" viewBox="0 0 1920 1080" data-theme="dark">
  <style>
        @font-face {
            font-family: 'Inter';
            src: url('assets/fonts/Inter-Regular.ttf') format('truetype');
            font-weight: 400;
            font-style: normal;
            font-display: swap;
        }
        @font-face {
            font-family: 'Inter';
            src: url('assets/fonts/Inter-Bold.ttf') format('truetype');
            font-weight: 600;
            font-style: normal;
            font-display: swap;
        }
        @font-face {
            font-family: 'Inter';
            src: url('assets/fonts/Inter-Bold.ttf') format('truetype');
            font-weight: 800;
            font-style: normal;
            font-display: swap;
        }
        
:root {
    --background: #0f172a;
    --panel: #1e293b;
    --primary-text: #f1f5f9;
    --muted-text: #94a3b8;
    --inverse-text: #0f172a;
    --border: #334155;
    --shadow-color: #000000;
    --icon-pad-bg: #1e293b;
    --art-glow: #7dd3fc;
    --art-glow-opacity: 0.18;
    --art-sheen: #ffffff;
    --art-sheen-opacity: 0.18;
    --art-shadow: #000000;
    --art-shadow-opacity: 0.28;
    --art-muted-line: #64748b;
    --art-panel-tint: #1e293b;
    --font-family: 'Inter', 'Segoe UI', 'Kalam', Roboto, Helvetica, Arial, sans-serif;
    --radius-xl: 16px;
    --font-family-headline: 'Inter', 'Segoe UI', 'Kalam', Roboto, Helvetica, Arial, sans-serif;
    --font-family-body: 'Inter', 'Segoe UI', 'Kalam', Roboto, Helvetica, Arial, sans-serif;
    --font-heading: 'Inter', 'Segoe UI', 'Kalam', Roboto, Helvetica, Arial, sans-serif;
    --font-body: 'Inter', 'Segoe UI', 'Kalam', Roboto, Helvetica, Arial, sans-serif;
    --font-size-h1: 56px;
    --font-size-h2: 40px;
    --font-size-h3: 28px;
    --font-size-body: 24px;
    --font-size-caption: 18px;
    --secondary-text: var(--muted-text);
    --panel-border: var(--border);
    --font-weight-normal: 400;
    --font-weight-medium: 500;
    --font-weight-semibold: 600;
    --font-weight-bold: 700;
    --spacing-gutter-pct: 0.07;
    --spacing-top-pct: 0.15;
    --spacing-bottom-pct: 0.07;
    --spacing-title-y-pct: 0.055;
    --accent-1: #fbbf24;
    --accent-2: #fb923c;
    --accent-3: #f87171;
    --accent-4: #a3e635;
    --accent-5: #4ade80;
    --accent-6: #d4a574;
}
:root[data-theme="dark"] {
    --background: #0f172a;
    --panel: #1e293b;
    --primary-text: #f1f5f9;
    --muted-text: #94a3b8;
    --inverse-text: #0f172a;
    --border: #334155;
    --shadow-color: #000000;
    --icon-pad-bg: #1e293b;
    --art-glow: #7dd3fc;
    --art-glow-opacity: 0.18;
    --art-sheen: #ffffff;
    --art-sheen-opacity: 0.18;
    --art-shadow: #000000;
    --art-shadow-opacity: 0.28;
    --art-muted-line: #64748b;
    --art-panel-tint: #1e293b;
    --accent-1: #fbbf24;
    --accent-2: #fb923c;
    --accent-3: #f87171;
    --accent-4: #a3e635;
    --accent-5: #4ade80;
    --accent-6: #d4a574;
}
:root[data-theme="light"] {
    --background: #f8fafc;
    --panel: #ffffff;
    --primary-text: #0f172a;
    --muted-text: #64748b;
    --inverse-text: #ffffff;
    --border: #e2e8f0;
    --shadow-color: #000000;
    --icon-pad-bg: #1e293b;
    --art-glow: #0891b2;
    --art-glow-opacity: 0.10;
    --art-sheen: #ffffff;
    --art-sheen-opacity: 0.34;
    --art-shadow: #0f172a;
    --art-shadow-opacity: 0.14;
    --art-muted-line: #94a3b8;
    --art-panel-tint: #f1f5f9;
    --accent-1: #d97706;
    --accent-2: #ea580c;
    --accent-3: #dc2626;
    --accent-4: #65a30d;
    --accent-5: #16a34a;
    --accent-6: #92400e;
}</style>
  <rect x="0" y="0" width="1.92E+3" height="1.08E+3" fill="#252a34" stroke="none" id="programmatic_background"/>
  <line id="HEADER_DECOR" x1="960.0" x2="1080.0" y1="125.0" y2="125.0" stroke="var(--accent-1)" stroke-width="6" stroke-linecap="round"/>
  <defs>
    <pattern id="svg939627f5-napkin-hatch" patternUnits="userSpaceOnUse" width="12" height="12">
      <path d="M -3 12 L 12 -3 M 0 15 L 15 0" fill="none" stroke="var(--primary-text)" stroke-width="1" stroke-opacity="0.05"/>
    </pattern>
    <filter id="svg939627f5-shadow" x="-30%" y="-30%" width="160%" height="160%">
      <feDropShadow dx="0" dy="3" stdDeviation="6" flood-color="#000000" flood-opacity="0.10"/>
      <feDropShadow dx="0" dy="8" stdDeviation="12" flood-color="#000000" flood-opacity="0.16"/>
    </filter>
    <marker id="svg939627f5-arrowhead" markerWidth="12" markerHeight="12" refX="10" refY="6" orient="auto">
      <path d="M 0 0 L 12 6 L 0 12 Z" fill="var(--muted-text)"/>
    </marker>
    <radialGradient id="svg939627f5-universal-edge-vignette" cx="50%" cy="50%" r="72%">
      <stop offset="0%" stop-color="var(--background)" stop-opacity="0"/>
      <stop offset="72%" stop-color="var(--background)" stop-opacity="0.12"/>
      <stop offset="100%" stop-color="var(--primary-text)" stop-opacity="0.08"/>
    </radialGradient>
    <linearGradient id="svg939627f5-universal-surface-sheen" x1="0%" y1="0%" x2="100%" y2="100%">
      <stop offset="0%" stop-color="var(--art-sheen)" stop-opacity="var(--art-sheen-opacity)"/>
      <stop offset="46%" stop-color="var(--art-sheen)" stop-opacity="0.035"/>
      <stop offset="100%" stop-color="var(--art-panel-tint)" stop-opacity="0.14"/>
    </linearGradient>
    <radialGradient id="svg939627f5-universal-icon-aura" cx="50%" cy="42%" r="64%">
      <stop offset="0%" stop-color="var(--art-glow)" stop-opacity="var(--art-glow-opacity)"/>
      <stop offset="100%" stop-color="var(--background)" stop-opacity="0"/>
    </radialGradient>
    <filter id="svg939627f5-text-glow" x="-20%" y="-20%" width="140%" height="140%">
      <feDropShadow dx="0" dy="0" stdDeviation="2" flood-color="#000000" flood-opacity="0.4"/>
    </filter>
  </defs>
  <rect width="100%" height="100%" fill="var(--background)" id="CANVAS_BG"/>
  <rect width="100%" height="100%" fill="url(#svg939627f5-napkin-hatch)"/>
  <rect id="UNIVERSAL_EDGE_VIGNETTE" width="100%" height="100%" fill="url(#svg939627f5-universal-edge-vignette)" opacity="0.62"/>
  <text id="TITLE" x="960.0" y="59" text-anchor="middle" font-size="58" font-weight="800" fill="#f1f5f9" style="font-size: 60px; font-family: Inter, Segoe UI, Kalam, Roboto, Helvetica, Arial, sans-serif; font-weight: 700; letter-spacing:-1.2px;" data-final-font-size="60">
    <tspan x="960.0" dy="68.00px">Analyzing the Roswell Press Session</tspan>
  </text>
  <rect id="TITLE_FRAME" x="134" y="56" width="1652" height="98" fill="none"/>
  <rect x="120" y="165" width="1680" height="820" rx="40" fill="var(--panel)" fill-opacity="0.22" stroke="var(--muted-text)" stroke-width="2.4" opacity="0.92"/>
  <path d="M 272.0 282.0 Q 319.5 282.0 367.0 418.0 Q 414.5 418.0 462.0 554.0 Q 509.5 554.0 557.0 690.0 Q 604.5 690.0 652.0 826.0" fill="none" stroke="var(--muted-text)" stroke-width="10" stroke-linecap="round" stroke-linejoin="round" opacity="0.36" marker-end="url(#svg939627f5-arrowhead)"/>
  <g id="DIAGRAM_MAIN" transform="translate(-60 -20) scale(1.08)">
    <g filter="url(#svg939627f5-shadow)">
      <rect id="ITEM_1_BG" x="190.0" y="210.0" width="980" height="144" rx="24" fill="var(--panel)" fill-opacity="0.97" stroke="var(--accent-1)" stroke-width="2.5"/>
      <rect x="190.0" y="210.0" width="980" height="144" rx="16" fill="url(#svg939627f5-universal-surface-sheen)" opacity="0.86"/>
      <rect x="190.0" y="210.0" width="980" height="18" rx="9" fill="var(--accent-1)" fill-opacity="0.55"/>
      <circle id="ITEM_1_PAD" cx="272.0" cy="282.0" r="40" fill="var(--icon-pad-bg)" opacity="0.95" fill-opacity="0.9" stroke-width="2" stroke="var(--primary-text)"/>
      <circle id="ITEM_1_PAD_INNER" cx="272.0" cy="282.0" r="31.20" fill="var(--accent-2)" fill-opacity="0.22"/>
      <circle cx="272.0" cy="282.0" r="32" fill="none" stroke="var(--accent-1)" stroke-width="3" stroke-dasharray="6 4"/>
      <g id="ITEM_1_ICON" transform="translate(242.0, 252.0)" data-icon-size="60" stroke-dasharray="6 4">
        <g transform="translate(-5.65714285714286,-9.0) scale(2.2285714285714286)">
          <path d="M2 15H30V28C30 29.1046 29.1046 30 28 30H4C2.89543 30 2 29.1046 2 28V15Z" fill="#8C5543"/>
          <path d="M11.1 9H4C2.89543 9 2 9.89543 2 11V15C2 17.2091 3.79086 19 6 19H26C28.2091 19 30 17.2091 30 15V11C30 9.89543 29.1046 9 28 9H20.9C20.4367 6.71776 18.419 5 16 5C13.581 5 11.5633 6.71776 11.1 9ZM13.1707 9C13.5825 7.83481 14.6938 7 16 7C17.3062 7 18.4175 7.83481 18.8293 9H13.1707Z" fill="#6D4534"/>
          <path d="M13 19L16 18L19 19V21C19 21.5523 18.5523 22 18 22H14C13.4477 22 13 21.5523 13 21V19Z" fill="#D3883E"/>
          <path d="M13 18C13 17.4477 13.4477 17 14 17H18C18.5523 17 19 17.4477 19 18V19H13V18Z" fill="#E19747"/>
        </g>
      </g>
      <rect x="345.0" y="238.0" width="690.0" height="24" rx="12" fill="var(--accent-1)" fill-opacity="0.08"/>
      <text x="1136.0" y="252.0" text-anchor="end" font-size="17" font-weight="800" fill="var(--accent-1)" opacity="0.72">01</text>
      <text id="ITEM_1_HEAD" x="358.0" y="228.0" text-anchor="start" font-weight="800" font-size="30" fill="var(--accent-2)" data-bg-id="ITEM_1_BG" fill-opacity="1.0" stroke="none" style="font-size: 30px; font-family: Inter, Segoe UI, Kalam, Roboto, Helvetica, Arial, sans-serif; font-weight: 700; letter-spacing:-0.4px;" data-final-font-size="30">
        <tspan x="358.0" dy="28.31px">Managed Event</tspan>
      </text>
      <rect id="ITEM_1_HEAD_FRAME" x="358.0" y="228.0" width="620.0" height="34" fill="none"/>
      <text id="ITEM_1_BODY" x="358.0" y="270.0" text-anchor="start" font-size="23" fill="var(--primary-text)" data-bg-id="ITEM_1_BG" style="font-size: 26px; font-family: Inter, Segoe UI, Kalam, Roboto, Helvetica, Arial, sans-serif; font-weight: 400;" data-final-font-size="26">
        <tspan x="358.0" dy="29.92px">Military officials organized a controlled press session</tspan>
      </text>
      <rect id="ITEM_1_BODY_FRAME" x="358.0" y="270.0" width="650.0" height="64.0" fill="none"/>
    </g>
    <g filter="url(#svg939627f5-shadow)">
      <rect id="ITEM_2_BG" x="285.0" y="346.0" width="980" height="144" rx="24" fill="var(--panel)" fill-opacity="0.97" stroke="var(--accent-2)" stroke-width="2.5"/>
      <rect x="285.0" y="346.0" width="980" height="144" rx="16" fill="url(#svg939627f5-universal-surface-sheen)" opacity="0.86"/>
      <rect x="285.0" y="346.0" width="980" height="18" rx="9" fill="var(--accent-2)" fill-opacity="0.55"/>
      <circle id="ITEM_2_PAD" cx="367.0" cy="418.0" r="40" fill="var(--icon-pad-bg)" opacity="0.95" fill-opacity="0.9" stroke-width="2" stroke="var(--primary-text)"/>
      <circle id="ITEM_2_PAD_INNER" cx="367.0" cy="418.0" r="31.20" fill="var(--accent-3)" fill-opacity="0.22"/>
      <circle cx="367.0" cy="418.0" r="32" fill="none" stroke="var(--accent-2)" stroke-width="3" stroke-dasharray="6 4"/>
      <g id="ITEM_2_ICON" transform="translate(337.0, 388.0)" data-icon-size="60" stroke-dasharray="6 4">
        <g transform="translate(-6.3054545454545465,-6.305454545454548) scale(1.8152727272727274)">
          <ellipse cx="20" cy="21.701" rx="13.304" ry="15.299" fill="#ffc84d"/>
          <ellipse cx="8.92" cy="22.424" rx="5.326" ry="4.995" fill="#ffc84d"/>
          <ellipse cx="31.08" cy="22.424" rx="5.326" ry="4.995" fill="#ffc84d"/>
          <ellipse cx="16.262" cy="21.407" rx="1.416" ry="1.699"/>
          <ellipse cx="23.738" cy="21.407" rx="1.416" ry="1.699"/>
          <path d="m21.763,29.806c.317,0,.543.305.459.611-.268.976-1.161,1.692-2.221,1.692s-1.954-.717-2.221-1.692c-.084-.306.141-.611.459-.611h3.525Z" fill="#5c2f17"/>
          <path d="m4.947,19.098s-.937-10.786,6.794-12.696c0,0,4.168-4.567,11.234-3.118s10.872,7.006,11.536,10.208c.664,3.201.506,5.568.506,5.568l-1.995,1.57c-.535.421-1.291.392-1.795-.066-1.167-1.06-3.641-2.816-7.708-3.439-5.98-.916-9.399-5.585-10.298-8.034,0,0-2.516,8.097-4.939,11.187-.43.548-1.241.607-1.771.155l-1.564-1.334Z" fill="#ff9000"/>
        </g>
      </g>
      <rect x="440.0" y="374.0" width="690.0" height="24" rx="12" fill="var(--accent-2)" fill-opacity="0.08"/>
      <text x="1231.0" y="388.0" text-anchor="end" font-size="17" font-weight="800" fill="var(--accent-2)" opacity="0.72">02</text>
      <text id="ITEM_2_HEAD" x="453.0" y="364.0" text-anchor="start" font-weight="800" font-size="30" fill="var(--accent-3)" data-bg-id="ITEM_2_BG" fill-opacity="1.0" stroke="none" style="font-size: 30px; font-family: Inter, Segoe UI, Kalam, Roboto, Helvetica, Arial, sans-serif; font-weight: 700; letter-spacing:-0.4px;" data-final-font-size="30">
        <tspan x="453.0" dy="28.31px">Subject Positioning</tspan>
      </text>
      <rect id="ITEM_2_HEAD_FRAME" x="453.0" y="364.0" width="620.0" height="34" fill="none"/>
      <text id="ITEM_2_BODY" x="453.0" y="406.0" text-anchor="start" font-size="23" fill="var(--primary-text)" data-bg-id="ITEM_2_BG" style="font-size: 26px; font-family: Inter, Segoe UI, Kalam, Roboto, Helvetica, Arial, sans-serif; font-weight: 400;" data-final-font-size="26">
        <tspan x="453.0" dy="29.92px">Ramey and others posed with recovered balloon material</tspan>
      </text>
      <rect id="ITEM_2_BODY_FRAME" x="453.0" y="406.0" width="650.0" height="64.0" fill="none"/>
    </g>
    <g filter="url(#svg939627f5-shadow)">
      <rect id="ITEM_3_BG" x="380.0" y="482.0" width="980" height="144" rx="24" fill="var(--panel)" fill-opacity="0.97" stroke="var(--accent-3)" stroke-width="2.5"/>
      <rect x="380.0" y="482.0" width="980" height="144" rx="16" fill="url(#svg939627f5-universal-surface-sheen)" opacity="0.86"/>
      <rect x="380.0" y="482.0" width="980" height="18" rx="9" fill="var(--accent-3)" fill-opacity="0.55"/>
      <circle id="ITEM_3_PAD" cx="462.0" cy="554.0" r="40" fill="var(--icon-pad-bg)" opacity="0.95" fill-opacity="0.9" stroke-width="2" stroke="var(--primary-text)"/>
      <circle id="ITEM_3_PAD_INNER" cx="462.0" cy="554.0" r="31.20" fill="var(--accent-4)" fill-opacity="0.22"/>
      <circle cx="462.0" cy="554.0" r="32" fill="none" stroke="var(--accent-3)" stroke-width="3" stroke-dasharray="6 4"/>
      <g id="ITEM_3_ICON" transform="translate(432.0, 524.0)" data-icon-size="60" stroke-dasharray="6 4">
        <g transform="translate(-10.392857142857142,-5.65714285714286) scale(2.2285714285714286)">
          <path d="M20.3432 2.29289C20.1556 2.10536 19.9013 2 19.6361 2H7C5.89543 2 5 2.89543 5 4V28C5 29.1046 5.89543 30 7 30H25C26.1046 30 27 29.1046 27 28V9.36394C27 9.09872 26.8946 8.84437 26.7071 8.65683L20.3432 2.29289Z" fill="#B4ACBC"/>
          <path d="M19.6821 3.00001L7 3C6.44772 3 6 3.44772 6 4V28C6 28.5523 6.44772 29 7 29L25 29C25.5523 29 26 28.5523 26 28V9.45333L19.6821 3.00001Z" fill="#F3EEF8"/>
          <path d="M9.5 12H22.5C22.7761 12 23 12.2239 23 12.5C23 12.7761 22.7761 13 22.5 13H9.5C9.22386 13 9 12.7761 9 12.5C9 12.2239 9.22386 12 9.5 12ZM9.5 15C9.22386 15 9 15.2239 9 15.5C9 15.7761 9.22386 16 9.5 16H22.5C22.7761 16 23 15.7761 23 15.5C23 15.2239 22.7761 15 22.5 15H9.5ZM9 18.5C9 18.2239 9.22386 18 9.5 18H22.5C22.7761 18 23 18.2239 23 18.5C23 18.7761 22.7761 19 22.5 19H9.5C9.22386 19 9 18.7761 9 18.5ZM9.5 21C9.22386 21 9 21.2239 9 21.5C9 21.7761 9.22386 22 9.5 22H17.5C17.7761 22 18 21.7761 18 21.5C18 21.2239 17.7761 21 17.5 21H9.5Z" fill="#998EA4"/>
          <path d="M26 9.45325H21.3892C20.4464 9.45325 19.6821 8.68896 19.6821 7.74614V3L26 9.45325Z" fill="#CDC4D6"/>
          <path d="M26.7662 20.1724L25.6864 16.941L22.8905 14.9347L12.2827 22.784L13.431 25.9402L16.1584 28.0217L26.7662 20.1724Z" fill="#FF822D"/>
          <path d="M11.1055 26.6545L11.2772 27.5479L12.1125 28.016L16.1519 28.0101L12.2919 22.7937L11.1055 26.6545Z" fill="#FFCE7C"/>
          <path d="M10.6865 28.0179L11.1053 26.655L12.1123 28.0158L10.6865 28.0179Z" fill="#402A32"/>
          <path d="M26.5206 12.2485C27.4085 11.5915 28.6609 11.7786 29.318 12.6666L30.8144 14.6889C31.4714 15.5768 31.2842 16.8292 30.3963 17.4862L28.3376 19.0096L25.5326 16.941L24.4619 13.7718L26.5206 12.2485Z" fill="#F92F60"/>
          <path d="M24.4619 13.772L28.3377 19.0097L26.7663 20.1724L22.8906 14.9347L24.4619 13.772Z" fill="#D3D3D3"/>
        </g>
      </g>
      <rect x="535.0" y="510.0" width="690.0" height="24" rx="12" fill="var(--accent-3)" fill-opacity="0.08"/>
      <text x="1326.0" y="524.0" text-anchor="end" font-size="17" font-weight="800" fill="var(--accent-3)" opacity="0.72">03</text>
      <text id="ITEM_3_HEAD" x="548.0" y="500.0" text-anchor="start" font-weight="800" font-size="30" fill="var(--accent-4)" data-bg-id="ITEM_3_BG" fill-opacity="1.0" stroke="none" style="font-size: 30px; font-family: Inter, Segoe UI, Kalam, Roboto, Helvetica, Arial, sans-serif; font-weight: 700; letter-spacing:-0.4px;" data-final-font-size="30">
        <tspan x="548.0" dy="28.31px">Prop Integration</tspan>
      </text>
      <rect id="ITEM_3_HEAD_FRAME" x="548.0" y="500.0" width="620.0" height="34" fill="none"/>
      <text id="ITEM_3_BODY" x="548.0" y="542.0" text-anchor="start" font-size="23" fill="var(--primary-text)" data-bg-id="ITEM_3_BG" style="font-size: 26px; font-family: Inter, Segoe UI, Kalam, Roboto, Helvetica, Arial, sans-serif; font-weight: 400;" data-final-font-size="26">
        <tspan x="548.0" dy="29.92px">A document was added to improve the visual narrative</tspan>
      </text>
      <rect id="ITEM_3_BODY_FRAME" x="548.0" y="542.0" width="650.0" height="64.0" fill="none"/>
    </g>
    <g filter="url(#svg939627f5-shadow)">
      <rect id="ITEM_4_BG" x="475.0" y="618.0" width="980" height="144" rx="24" fill="var(--panel)" fill-opacity="0.97" stroke="var(--accent-4)" stroke-width="2.5"/>
      <rect x="475.0" y="618.0" width="980" height="144" rx="16" fill="url(#svg939627f5-universal-surface-sheen)" opacity="0.86"/>
      <rect x="475.0" y="618.0" width="980" height="18" rx="9" fill="var(--accent-4)" fill-opacity="0.55"/>
      <circle id="ITEM_4_PAD" cx="557.0" cy="690.0" r="40" fill="var(--icon-pad-bg)" opacity="0.95" fill-opacity="0.9" stroke-width="2" stroke="var(--primary-text)"/>
      <circle id="ITEM_4_PAD_INNER" cx="557.0" cy="690.0" r="31.20" fill="var(--accent-5)" fill-opacity="0.22"/>
      <circle cx="557.0" cy="690.0" r="32" fill="none" stroke="var(--accent-4)" stroke-width="3" stroke-dasharray="6 4"/>
      <g id="ITEM_4_ICON" transform="translate(527.0, 660.0)" data-icon-size="60" stroke-dasharray="6 4">
        <g transform="translate(-8.400000000000004,-8.400000000000007) scale(0.30000000000000004)" vector-effect="non-scaling-stroke" stroke-width="2.43" stroke-linecap="round" stroke-linejoin="round" stroke-opacity="1.0">
          <rect x="32" y="48" width="192" height="160" rx="8" fill="none" stroke="#f1f5f9" vector-effect="non-scaling-stroke"/>
          <line x1="128" y1="48" x2="128" y2="208" fill="none" stroke="#f1f5f9" vector-effect="non-scaling-stroke"/>
          <line x1="32" y1="80" x2="224" y2="80" fill="none" stroke="#f1f5f9" vector-effect="non-scaling-stroke"/>
          <line x1="32" y1="176" x2="224" y2="176" fill="none" stroke="#f1f5f9" vector-effect="non-scaling-stroke"/>
          <line x1="80" y1="48" x2="80" y2="80" fill="none" stroke="#f1f5f9" vector-effect="non-scaling-stroke"/>
          <line x1="176" y1="48" x2="176" y2="80" fill="none" stroke="#f1f5f9" vector-effect="non-scaling-stroke"/>
          <line x1="80" y1="176" x2="80" y2="208" fill="none" stroke="#f1f5f9" vector-effect="non-scaling-stroke"/>
          <line x1="176" y1="176" x2="176" y2="208" fill="none" stroke="#f1f5f9" vector-effect="non-scaling-stroke"/>
        </g>
      </g>
      <rect x="630.0" y="646.0" width="690.0" height="24" rx="12" fill="var(--accent-4)" fill-opacity="0.08"/>
      <text x="1421.0" y="660.0" text-anchor="end" font-size="17" font-weight="800" fill="var(--accent-4)" opacity="0.72">04</text>
      <text id="ITEM_4_HEAD" x="643.0" y="636.0" text-anchor="start" font-weight="800" font-size="30" fill="var(--accent-5)" data-bg-id="ITEM_4_BG" fill-opacity="1.0" stroke="none" style="font-size: 30px; font-family: Inter, Segoe UI, Kalam, Roboto, Helvetica, Arial, sans-serif; font-weight: 700; letter-spacing:-0.4px;" data-final-font-size="30">
        <tspan x="643.0" dy="28.31px">Image Capture</tspan>
      </text>
      <rect id="ITEM_4_HEAD_FRAME" x="643.0" y="636.0" width="620.0" height="34" fill="none"/>
      <text id="ITEM_4_BODY" x="643.0" y="678.0" text-anchor="start" font-size="23" fill="var(--primary-text)" data-bg-id="ITEM_4_BG" style="font-size: 26px; font-family: Inter, Segoe UI, Kalam, Roboto, Helvetica, Arial, sans-serif; font-weight: 400;" data-final-font-size="26">
        <tspan x="643.0" dy="23.94px">Photographers captured the final staged composition</tspan>
        <tspan x="643.0" dy="29.90px">for news</tspan>
      </text>
      <rect id="ITEM_4_BODY_FRAME" x="643.0" y="678.0" width="650.0" height="64.0" fill="none"/>
    </g>
    <g filter="url(#svg939627f5-shadow)">
      <rect id="ITEM_5_BG" x="570.0" y="754.0" width="980" height="144" rx="24" fill="var(--panel)" fill-opacity="0.97" stroke="var(--accent-5)" stroke-width="2.5"/>
      <rect x="570.0" y="754.0" width="980" height="144" rx="16" fill="url(#svg939627f5-universal-surface-sheen)" opacity="0.86"/>
      <rect x="570.0" y="754.0" width="980" height="18" rx="9" fill="var(--accent-5)" fill-opacity="0.55"/>
      <circle id="ITEM_5_PAD" cx="652.0" cy="826.0" r="40" fill="var(--icon-pad-bg)" opacity="0.95" fill-opacity="0.9" stroke-width="2" stroke="var(--primary-text)"/>
      <circle id="ITEM_5_PAD_INNER" cx="652.0" cy="826.0" r="31.20" fill="var(--accent-6)" fill-opacity="0.22"/>
      <circle cx="652.0" cy="826.0" r="32" fill="none" stroke="var(--accent-5)" stroke-width="3" stroke-dasharray="6 4"/>
      <g id="ITEM_5_ICON" transform="translate(622.0, 796.0)" data-icon-size="60" stroke-dasharray="6 4">
        <g transform="translate(-3.280000000000003,-7.4399999999999995) scale(2.08)">
          <path d="M4 7C4 5.89543 4.89543 5 6 5H29C30.1046 5 31 5.89543 31 7V29C31 30.1046 30.1046 31 29 31H4C2.34315 31 1 29.6569 1 28V10C1 8.34314 2.34315 7 4 7Z" fill="#B4ACBC"/>
          <path d="M28 10C28 8.89543 27.1046 8 26 8H4C2.89543 8 2 8.89543 2 10V28C2 29.1046 2.89543 30 4 30H29.5C28.6716 30 28 29.3284 28 28.5V10Z" fill="#F3EEF8"/>
          <path d="M4 11C4 10.4477 4.44772 10 5 10H25C25.5523 10 26 10.4477 26 11C26 11.5523 25.5523 12 25 12H5C4.44772 12 4 11.5523 4 11ZM4 14.5C4 14.2239 4.22386 14 4.5 14H25.5C25.7761 14 26 14.2239 26 14.5C26 14.7761 25.7761 15 25.5 15H4.5C4.22386 15 4 14.7761 4 14.5ZM19.5 17C19.2239 17 19 17.2239 19 17.5C19 17.7761 19.2239 18 19.5 18H25.5C25.7761 18 26 17.7761 26 17.5C26 17.2239 25.7761 17 25.5 17H19.5ZM19 20.5C19 20.2239 19.2239 20 19.5 20H25.5C25.7761 20 26 20.2239 26 20.5C26 20.7761 25.7761 21 25.5 21H19.5C19.2239 21 19 20.7761 19 20.5ZM19.5 23C19.2239 23 19 23.2239 19 23.5C19 23.7761 19.2239 24 19.5 24H25.5C25.7761 24 26 23.7761 26 23.5C26 23.2239 25.7761 23 25.5 23H19.5ZM19 26.5C19 26.2239 19.2239 26 19.5 26H25.5C25.7761 26 26 26.2239 26 26.5C26 26.7761 25.7761 27 25.5 27H19.5C19.2239 27 19 26.7761 19 26.5ZM6 17C4.89543 17 4 17.8954 4 19V25C4 26.1046 4.89543 27 6 27H15C16.1046 27 17 26.1046 17 25V19C17 17.8954 16.1046 17 15 17H6Z" fill="#998EA4"/>
        </g>
      </g>
      <rect x="725.0" y="782.0" width="690.0" height="24" rx="12" fill="var(--accent-5)" fill-opacity="0.08"/>
      <text x="1516.0" y="796.0" text-anchor="end" font-size="17" font-weight="800" fill="var(--accent-5)" opacity="0.72">05</text>
      <text id="ITEM_5_HEAD" x="738.0" y="772.0" text-anchor="start" font-weight="800" font-size="30" fill="var(--accent-6)" data-bg-id="ITEM_5_BG" fill-opacity="1.0" stroke="none" style="font-size: 30px; font-family: Inter, Segoe UI, Kalam, Roboto, Helvetica, Arial, sans-serif; font-weight: 700; letter-spacing:-0.4px;" data-final-font-size="30">
        <tspan x="738.0" dy="28.31px">Public Release</tspan>
      </text>
      <rect id="ITEM_5_HEAD_FRAME" x="738.0" y="772.0" width="620.0" height="34" fill="none"/>
      <text id="ITEM_5_BODY" x="738.0" y="814.0" text-anchor="start" font-size="23" fill="var(--primary-text)" data-bg-id="ITEM_5_BG" style="font-size: 26px; font-family: Inter, Segoe UI, Kalam, Roboto, Helvetica, Arial, sans-serif; font-weight: 400;" data-final-font-size="26">
        <tspan x="738.0" dy="29.92px">Newspapers published the images to explain the debris</tspan>
      </text>
      <rect id="ITEM_5_BODY_FRAME" x="738.0" y="814.0" width="650.0" height="64.0" fill="none"/>
    </g>
  </g>
</svg>
