<?xml version='1.0' encoding='utf-8'?>
<svg xmlns="http://www.w3.org/2000/svg" width="1920" height="1080" viewBox="0 0 1920 1080" data-theme="dark">
  <style>
        @font-face {
            font-family: 'Inter';
            src: url('assets/fonts/Inter-Regular.ttf') format('truetype');
            font-weight: 400;
            font-style: normal;
            font-display: swap;
        }
        @font-face {
            font-family: 'Inter';
            src: url('assets/fonts/Inter-Bold.ttf') format('truetype');
            font-weight: 600;
            font-style: normal;
            font-display: swap;
        }
        @font-face {
            font-family: 'Inter';
            src: url('assets/fonts/Inter-Bold.ttf') format('truetype');
            font-weight: 800;
            font-style: normal;
            font-display: swap;
        }
        
:root {
    --background: #0f172a;
    --panel: #1e293b;
    --primary-text: #f1f5f9;
    --muted-text: #94a3b8;
    --inverse-text: #0f172a;
    --border: #334155;
    --shadow-color: #000000;
    --icon-pad-bg: #1e293b;
    --art-glow: #7dd3fc;
    --art-glow-opacity: 0.18;
    --art-sheen: #ffffff;
    --art-sheen-opacity: 0.18;
    --art-shadow: #000000;
    --art-shadow-opacity: 0.28;
    --art-muted-line: #64748b;
    --art-panel-tint: #1e293b;
    --font-family: 'Inter', 'Segoe UI', 'Kalam', Roboto, Helvetica, Arial, sans-serif;
    --radius-xl: 16px;
    --font-family-headline: 'Inter', 'Segoe UI', 'Kalam', Roboto, Helvetica, Arial, sans-serif;
    --font-family-body: 'Inter', 'Segoe UI', 'Kalam', Roboto, Helvetica, Arial, sans-serif;
    --font-heading: 'Inter', 'Segoe UI', 'Kalam', Roboto, Helvetica, Arial, sans-serif;
    --font-body: 'Inter', 'Segoe UI', 'Kalam', Roboto, Helvetica, Arial, sans-serif;
    --font-size-h1: 56px;
    --font-size-h2: 40px;
    --font-size-h3: 28px;
    --font-size-body: 24px;
    --font-size-caption: 18px;
    --secondary-text: var(--muted-text);
    --panel-border: var(--border);
    --font-weight-normal: 400;
    --font-weight-medium: 500;
    --font-weight-semibold: 600;
    --font-weight-bold: 700;
    --spacing-gutter-pct: 0.07;
    --spacing-top-pct: 0.15;
    --spacing-bottom-pct: 0.07;
    --spacing-title-y-pct: 0.055;
    --accent-1: #60a5fa;
    --accent-2: #4ade80;
    --accent-3: #f97316;
    --accent-4: #a78bfa;
    --accent-5: #38bdf8;
    --accent-6: #94a3b8;
}
:root[data-theme="dark"] {
    --background: #0f172a;
    --panel: #1e293b;
    --primary-text: #f1f5f9;
    --muted-text: #94a3b8;
    --inverse-text: #0f172a;
    --border: #334155;
    --shadow-color: #000000;
    --icon-pad-bg: #1e293b;
    --art-glow: #7dd3fc;
    --art-glow-opacity: 0.18;
    --art-sheen: #ffffff;
    --art-sheen-opacity: 0.18;
    --art-shadow: #000000;
    --art-shadow-opacity: 0.28;
    --art-muted-line: #64748b;
    --art-panel-tint: #1e293b;
    --accent-1: #60a5fa;
    --accent-2: #4ade80;
    --accent-3: #f97316;
    --accent-4: #a78bfa;
    --accent-5: #38bdf8;
    --accent-6: #94a3b8;
}
:root[data-theme="light"] {
    --background: #f8fafc;
    --panel: #ffffff;
    --primary-text: #0f172a;
    --muted-text: #64748b;
    --inverse-text: #ffffff;
    --border: #e2e8f0;
    --shadow-color: #000000;
    --icon-pad-bg: #1e293b;
    --art-glow: #0891b2;
    --art-glow-opacity: 0.10;
    --art-sheen: #ffffff;
    --art-sheen-opacity: 0.34;
    --art-shadow: #0f172a;
    --art-shadow-opacity: 0.14;
    --art-muted-line: #94a3b8;
    --art-panel-tint: #f1f5f9;
    --accent-1: #2563eb;
    --accent-2: #16a34a;
    --accent-3: #ea580c;
    --accent-4: #7c3aed;
    --accent-5: #0284c7;
    --accent-6: #475569;
}</style>
  <rect x="0" y="0" width="1.92E+3" height="1.08E+3" fill="#252a34" stroke="none" id="programmatic_background"/>
  <line id="HEADER_DECOR" x1="960.0" x2="1080.0" y1="127.0" y2="127.0" stroke="var(--accent-1)" stroke-width="6" stroke-linecap="round"/>
  <defs>
    <pattern id="svg79fc74b1-napkin-hatch" patternUnits="userSpaceOnUse" width="12" height="12">
      <path d="M -3 12 L 12 -3 M 0 15 L 15 0" fill="none" stroke="var(--primary-text)" stroke-width="1" stroke-opacity="0.05"/>
    </pattern>
    <filter id="svg79fc74b1-shadow" x="-30%" y="-30%" width="160%" height="160%">
      <feDropShadow dx="0" dy="3" stdDeviation="6" flood-color="#000000" flood-opacity="0.10"/>
      <feDropShadow dx="0" dy="8" stdDeviation="12" flood-color="#000000" flood-opacity="0.16"/>
    </filter>
    <radialGradient id="svg79fc74b1-universal-edge-vignette" cx="50%" cy="50%" r="72%">
      <stop offset="0%" stop-color="var(--background)" stop-opacity="0"/>
      <stop offset="72%" stop-color="var(--background)" stop-opacity="0.12"/>
      <stop offset="100%" stop-color="var(--primary-text)" stop-opacity="0.08"/>
    </radialGradient>
    <linearGradient id="svg79fc74b1-universal-surface-sheen" x1="0%" y1="0%" x2="100%" y2="100%">
      <stop offset="0%" stop-color="var(--art-sheen)" stop-opacity="var(--art-sheen-opacity)"/>
      <stop offset="46%" stop-color="var(--art-sheen)" stop-opacity="0.035"/>
      <stop offset="100%" stop-color="var(--art-panel-tint)" stop-opacity="0.14"/>
    </linearGradient>
    <radialGradient id="svg79fc74b1-universal-icon-aura" cx="50%" cy="42%" r="64%">
      <stop offset="0%" stop-color="var(--art-glow)" stop-opacity="var(--art-glow-opacity)"/>
      <stop offset="100%" stop-color="var(--background)" stop-opacity="0"/>
    </radialGradient>
    <filter id="svg79fc74b1-text-glow" x="-20%" y="-20%" width="140%" height="140%">
      <feDropShadow dx="0" dy="0" stdDeviation="2" flood-color="#000000" flood-opacity="0.4"/>
    </filter>
    <marker id="svg79fc74b1-arrowhead" markerWidth="10" markerHeight="7" refX="9" refY="3.5" orient="auto" markerUnits="strokeWidth">
      <polygon points="0 0, 10 3.5, 0 7" fill="var(--muted-text)" opacity="0.6"/>
    </marker>
  </defs>
  <rect width="100%" height="100%" fill="var(--background)" id="CANVAS_BG"/>
  <rect width="100%" height="100%" fill="url(#svg79fc74b1-napkin-hatch)"/>
  <rect id="UNIVERSAL_EDGE_VIGNETTE" width="100%" height="100%" fill="url(#svg79fc74b1-universal-edge-vignette)" opacity="0.62"/>
  <text id="TITLE" x="960.0" y="59" text-anchor="middle" font-size="60" font-weight="800" fill="#f1f5f9" style="font-size: 60px; font-family: Inter, Segoe UI, Kalam, Roboto, Helvetica, Arial, sans-serif; font-weight: 700; letter-spacing:-1.2px;" data-final-font-size="60">
    <tspan x="960.0" dy="68.00px">Ramey Memo Evidence Hierarchy</tspan>
  </text>
  <rect id="TITLE_FRAME" x="134" y="54" width="1652" height="100" fill="none"/>
  <rect x="150" y="150" width="1620" height="850" rx="40" fill="var(--panel)" fill-opacity="0.18" stroke="var(--muted-text)" stroke-width="2" opacity="0.90"/>
  <line x1="360" y1="212.0" x2="360" y2="938.0" stroke="var(--muted-text)" stroke-width="18" stroke-linecap="round" opacity="0.18"/>
  <line x1="360" y1="212.0" x2="360" y2="938.0" stroke="var(--border)" stroke-width="3" stroke-linecap="round" opacity="0.72"/>
  <g id="DIAGRAM_MAIN">
    <g filter="url(#svg79fc74b1-shadow)">
      <line x1="404.0" y1="240.0" x2="420.0" y2="240.0" stroke="var(--accent-1)" stroke-width="5" opacity="0.76" stroke-linecap="round"/>
      <rect id="ITEM_1_BG" x="420.0" y="174.0" width="1085" height="152" rx="22" fill="var(--panel)" fill-opacity="0.97" stroke="var(--accent-1)" stroke-width="2.5"/>
      <rect x="420.0" y="174.0" width="1085" height="152" rx="16" fill="url(#svg79fc74b1-universal-surface-sheen)" opacity="0.88"/>
      <rect x="420.0" y="174.0" width="14" height="132" rx="7" fill="var(--accent-1)" fill-opacity="0.90"/>
      <circle id="ITEM_1_PAD" cx="360" cy="240.0" r="46" fill="var(--icon-pad-bg)" opacity="0.95" fill-opacity="0.9" stroke-width="2" stroke="var(--primary-text)"/>
      <circle id="ITEM_1_PAD_INNER" cx="360" cy="240.0" r="35.88" fill="var(--accent-4)" fill-opacity="0.22"/>
      <circle cx="360" cy="240.0" r="38" fill="none" stroke="var(--accent-1)" stroke-width="3" stroke-dasharray="6 4"/>
      <g id="ITEM_1_ICON" transform="translate(324, 204.0)" data-icon-size="72" stroke-dasharray="6 4">
        <g transform="translate(-3.050847457627119,-1.5254237288135624) scale(3.2542372881355934)" vector-effect="non-scaling-stroke" stroke-width="2.58" stroke-linecap="round" stroke-linejoin="round" stroke-opacity="1.0">
          <path d="m12 14 4-4" vector-effect="non-scaling-stroke" fill="none" stroke="#f1f5f9"/>
          <path d="M3.34 19a10 10 0 1 1 17.32 0" vector-effect="non-scaling-stroke" fill="none" stroke="#f1f5f9"/>
        </g>
      </g>
      <text id="ITEM_1_HEAD" x="500.0" y="192.0" text-anchor="start" font-weight="800" font-size="30" fill="var(--accent-4)" data-bg-id="ITEM_1_BG" fill-opacity="1.0" stroke="none" style="font-size: 30px; font-family: Inter, Segoe UI, Kalam, Roboto, Helvetica, Arial, sans-serif; font-weight: 700; letter-spacing:-0.4px;" data-final-font-size="30">
        <tspan x="500.0" dy="27.13px">Confidence Rating</tspan>
      </text>
      <rect id="ITEM_1_HEAD_FRAME" x="500" y="192.0" width="760" height="32" fill="none"/>
      <text id="ITEM_1_BODY" x="500.0" y="230.0" text-anchor="start" font-size="24" fill="var(--primary-text)" data-bg-id="ITEM_1_BG" style="font-size: 26px; font-family: Inter, Segoe UI, Kalam, Roboto, Helvetica, Arial, sans-serif; font-weight: 400;" data-final-font-size="26">
        <tspan x="500.0" dy="31.81px">Assign a scale from guess to near certainty</tspan>
      </text>
      <rect id="ITEM_1_BODY_FRAME" x="500" y="230.0" width="860" height="72" fill="none"/>
      <text x="1460" y="216.0" text-anchor="end" font-size="18" font-weight="800" fill="var(--accent-1)" opacity="0.70">01</text>
    </g>
    <g filter="url(#svg79fc74b1-shadow)">
      <line x1="404.0" y1="407.5" x2="420.0" y2="407.5" stroke="var(--accent-2)" stroke-width="5" opacity="0.76" stroke-linecap="round"/>
      <rect id="ITEM_2_BG" x="420.0" y="341.5" width="1085" height="152" rx="22" fill="var(--panel)" fill-opacity="0.97" stroke="var(--accent-2)" stroke-width="2.5"/>
      <rect x="420.0" y="341.5" width="1085" height="152" rx="16" fill="url(#svg79fc74b1-universal-surface-sheen)" opacity="0.88"/>
      <rect x="420.0" y="341.5" width="14" height="132" rx="7" fill="var(--accent-2)" fill-opacity="0.90"/>
      <circle id="ITEM_2_PAD" cx="360" cy="407.5" r="46" fill="var(--icon-pad-bg)" opacity="0.95" fill-opacity="0.9" stroke-width="2" stroke="var(--primary-text)"/>
      <circle id="ITEM_2_PAD_INNER" cx="360" cy="407.5" r="35.88" fill="var(--accent-5)" fill-opacity="0.22"/>
      <circle cx="360" cy="407.5" r="38" fill="none" stroke="var(--accent-2)" stroke-width="3" stroke-dasharray="6 4"/>
      <g id="ITEM_2_ICON" transform="translate(324, 371.5)" data-icon-size="72" stroke-dasharray="6 4">
        <g transform="translate(-5.142857142857146,-5.142857142857143) scale(2.5714285714285716)" vector-effect="non-scaling-stroke" fill="#f1f5f9" fill-opacity="1.0" stroke="none">
          <path fill="#f1f5f9" d="m25.7 9.3l-7-7c-.2-.2-.4-.3-.7-.3H8c-1.1 0-2 .9-2 2v24c0 1.1.9 2 2 2h16c1.1 0 2-.9 2-2V10c0-.3-.1-.5-.3-.7M18 4.4l5.6 5.6H18zM24 28H8V4h8v6c0 1.1.9 2 2 2h6z" vector-effect="non-scaling-stroke" stroke="none"/>
          <path fill="#f1f5f9" d="M10 22h12v2H10zm0-6h12v2H10z" vector-effect="non-scaling-stroke" stroke="none"/>
        </g>
      </g>
      <text id="ITEM_2_HEAD" x="500.0" y="359.5" text-anchor="start" font-weight="800" font-size="30" fill="var(--accent-5)" data-bg-id="ITEM_2_BG" fill-opacity="1.0" stroke="none" style="font-size: 30px; font-family: Inter, Segoe UI, Kalam, Roboto, Helvetica, Arial, sans-serif; font-weight: 700; letter-spacing:-0.4px;" data-final-font-size="30">
        <tspan x="500.0" dy="27.13px">Word Level Score</tspan>
      </text>
      <rect id="ITEM_2_HEAD_FRAME" x="500" y="359.5" width="760" height="32" fill="none"/>
      <text id="ITEM_2_BODY" x="500.0" y="397.5" text-anchor="start" font-size="24" fill="var(--primary-text)" data-bg-id="ITEM_2_BG" style="font-size: 26px; font-family: Inter, Segoe UI, Kalam, Roboto, Helvetica, Arial, sans-serif; font-weight: 400;" data-final-font-size="26">
        <tspan x="500.0" dy="31.81px">Measure overlap of proposed complete words</tspan>
      </text>
      <rect id="ITEM_2_BODY_FRAME" x="500" y="397.5" width="860" height="72" fill="none"/>
      <text x="1460" y="383.5" text-anchor="end" font-size="18" font-weight="800" fill="var(--accent-2)" opacity="0.70">02</text>
    </g>
    <g filter="url(#svg79fc74b1-shadow)">
      <line x1="404.0" y1="575.0" x2="420.0" y2="575.0" stroke="var(--accent-3)" stroke-width="5" opacity="0.76" stroke-linecap="round"/>
      <rect id="ITEM_3_BG" x="420.0" y="509.0" width="1085" height="152" rx="22" fill="var(--panel)" fill-opacity="0.97" stroke="var(--accent-3)" stroke-width="2.5"/>
      <rect x="420.0" y="509.0" width="1085" height="152" rx="16" fill="url(#svg79fc74b1-universal-surface-sheen)" opacity="0.88"/>
      <rect x="420.0" y="509.0" width="14" height="132" rx="7" fill="var(--accent-3)" fill-opacity="0.90"/>
      <circle id="ITEM_3_PAD" cx="360" cy="575.0" r="46" fill="var(--icon-pad-bg)" opacity="0.95" fill-opacity="0.9" stroke-width="2" stroke="var(--primary-text)"/>
      <circle id="ITEM_3_PAD_INNER" cx="360" cy="575.0" r="35.88" fill="var(--accent-6)" fill-opacity="0.22"/>
      <circle cx="360" cy="575.0" r="38" fill="none" stroke="var(--accent-3)" stroke-width="3" stroke-dasharray="6 4"/>
      <g id="ITEM_3_ICON" transform="translate(324, 539.0)" data-icon-size="72" stroke-dasharray="6 4">
        <g transform="translate(-5.142857142857143,-5.7857142857142865) scale(2.5714285714285716)">
          <path d="M7 5.5H28H30V23.5H29.5H7V5.5Z" fill="#B4ACBC"/>
          <path d="M8.29 6.0166V9.50012H29.5C29.7762 9.50012 30 9.72398 30 10.0001C30 10.2763 29.7762 10.5001 29.5 10.5001H8.29V14.0137H29.5C29.7762 14.0137 30 14.2375 30 14.5137C30 14.7898 29.7762 15.0137 29.5 15.0137H8.29V18.5H29.5C29.7762 18.5 30 18.7239 30 19C30 19.2761 29.7762 19.5 29.5 19.5H8.29V23.0164H29.5C29.7762 23.0164 30 23.2402 30 23.5164C30 23.7925 29.7762 24.0164 29.5 24.0164H4.30005C4.25605 24.0164 4.21337 24.0107 4.17272 24H2.8C2.36 24 2 23.6416 2 23.2037V5.82368C2 5.38569 2.36 5.02734 2.8 5.02734H4.19647C4.22989 5.0203 4.26454 5.0166 4.30005 5.0166H29.5C29.7762 5.0166 30 5.24046 30 5.5166C30 5.79274 29.7762 6.0166 29.5 6.0166H8.29Z" fill="#CDC4D6"/>
          <path d="M19.01 2.25C17.4158 2.25 16.12 3.54579 16.12 5.14V11.3967C13.1882 12.03 10.99 14.6393 10.99 17.76C10.99 20.6372 13.2624 22.9846 16.11 23.1051V26.98C16.11 27.9458 15.3258 28.73 14.36 28.73C13.8064 28.73 13.3125 28.4723 12.9917 28.0705C13.7669 27.9496 14.36 27.2791 14.36 26.47C14.36 25.5753 13.6347 24.85 12.74 24.85C11.8694 24.85 11.1592 25.5367 11.1216 26.398C11.114 26.4408 11.11 26.4849 11.11 26.53V26.98C11.11 28.7742 12.5658 30.23 14.36 30.23C16.1542 30.23 17.61 28.7742 17.61 26.98V22.9248C19.4365 22.378 20.77 20.6829 20.77 18.68C20.77 16.8192 19.398 15.2803 17.61 15.0191V12.742C17.6437 12.737 17.6766 12.7299 17.7087 12.7206C20.0935 12.3214 21.91 10.2485 21.91 7.75V5.14L21.91 5.13364C21.8965 3.54563 20.6054 2.25 19.01 2.25ZM19.27 18.68C19.27 19.841 18.5914 20.8464 17.61 21.3203V16.5467C18.5644 16.7871 19.27 17.6506 19.27 18.68ZM16.11 21.6032C14.0912 21.4842 12.49 19.8086 12.49 17.76C12.49 15.4764 14.0198 13.5484 16.11 12.9455V15.1317C14.8638 15.5374 13.96 16.7106 13.96 18.09C13.96 18.5042 14.2958 18.84 14.71 18.84C15.1242 18.84 15.46 18.5042 15.46 18.09C15.46 17.5632 15.7161 17.0936 16.11 16.7995V21.6032ZM17.62 5.14C17.62 4.37421 18.2442 3.75 19.01 3.75C19.7736 3.75 20.4019 4.37284 20.41 5.14351V7.75C20.41 9.44843 19.2153 10.8666 17.62 11.2105V5.14Z" fill="#1C1C1C"/>
        </g>
      </g>
      <text id="ITEM_3_HEAD" x="500.0" y="527.0" text-anchor="start" font-weight="800" font-size="30" fill="var(--accent-6)" data-bg-id="ITEM_3_BG" fill-opacity="1.0" stroke="none" style="font-size: 30px; font-family: Inter, Segoe UI, Kalam, Roboto, Helvetica, Arial, sans-serif; font-weight: 700; letter-spacing:-0.4px;" data-final-font-size="30">
        <tspan x="500.0" dy="27.13px">Letter Level Score</tspan>
      </text>
      <rect id="ITEM_3_HEAD_FRAME" x="500" y="527.0" width="760" height="32" fill="none"/>
      <text id="ITEM_3_BODY" x="500.0" y="565.0" text-anchor="start" font-size="24" fill="var(--primary-text)" data-bg-id="ITEM_3_BG" style="font-size: 26px; font-family: Inter, Segoe UI, Kalam, Roboto, Helvetica, Arial, sans-serif; font-weight: 400;" data-final-font-size="26">
        <tspan x="500.0" dy="31.81px">Identify agreement on individual characters first</tspan>
      </text>
      <rect id="ITEM_3_BODY_FRAME" x="500" y="565.0" width="860" height="72" fill="none"/>
      <text x="1460" y="551.0" text-anchor="end" font-size="18" font-weight="800" fill="var(--accent-3)" opacity="0.70">03</text>
    </g>
    <g filter="url(#svg79fc74b1-shadow)">
      <line x1="404.0" y1="742.5" x2="420.0" y2="742.5" stroke="var(--accent-4)" stroke-width="5" opacity="0.76" stroke-linecap="round"/>
      <rect id="ITEM_4_BG" x="420.0" y="676.5" width="1085" height="152" rx="22" fill="var(--panel)" fill-opacity="0.97" stroke="var(--accent-4)" stroke-width="2.5"/>
      <rect x="420.0" y="676.5" width="1085" height="152" rx="16" fill="url(#svg79fc74b1-universal-surface-sheen)" opacity="0.88"/>
      <rect x="420.0" y="676.5" width="14" height="132" rx="7" fill="var(--accent-4)" fill-opacity="0.90"/>
      <circle id="ITEM_4_PAD" cx="360" cy="742.5" r="46" fill="var(--icon-pad-bg)" opacity="0.95" fill-opacity="0.9" stroke-width="2" stroke="var(--primary-text)"/>
      <circle id="ITEM_4_PAD_INNER" cx="360" cy="742.5" r="35.88" fill="var(--accent-1)" fill-opacity="0.22"/>
      <circle cx="360" cy="742.5" r="38" fill="none" stroke="var(--accent-4)" stroke-width="3" stroke-dasharray="6 4"/>
      <g id="ITEM_4_ICON" transform="translate(324, 706.5)" data-icon-size="72" stroke-dasharray="6 4">
        <g transform="translate(-3.050847457627119,-3.050847457627119) scale(3.2542372881355934)" vector-effect="non-scaling-stroke" stroke-width="2.58" stroke-linecap="round" stroke-linejoin="round" stroke-opacity="1.0">
          <line x1="22" x2="2" y1="6" y2="6" vector-effect="non-scaling-stroke" fill="none" stroke="#f1f5f9"/>
          <line x1="22" x2="2" y1="18" y2="18" vector-effect="non-scaling-stroke" fill="none" stroke="#f1f5f9"/>
          <line x1="6" x2="6" y1="2" y2="22" vector-effect="non-scaling-stroke" fill="none" stroke="#f1f5f9"/>
          <line x1="18" x2="18" y1="2" y2="22" vector-effect="non-scaling-stroke" fill="none" stroke="#f1f5f9"/>
        </g>
      </g>
      <text id="ITEM_4_HEAD" x="500.0" y="694.5" text-anchor="start" font-weight="800" font-size="30" fill="var(--accent-1)" data-bg-id="ITEM_4_BG" fill-opacity="1.0" stroke="none" style="font-size: 30px; font-family: Inter, Segoe UI, Kalam, Roboto, Helvetica, Arial, sans-serif; font-weight: 700; letter-spacing:-0.4px;" data-final-font-size="30">
        <tspan x="500.0" dy="27.13px">Location Match</tspan>
      </text>
      <rect id="ITEM_4_HEAD_FRAME" x="500" y="694.5" width="760" height="32" fill="none"/>
      <text id="ITEM_4_BODY" x="500.0" y="732.5" text-anchor="start" font-size="24" fill="var(--primary-text)" data-bg-id="ITEM_4_BG" style="font-size: 26px; font-family: Inter, Segoe UI, Kalam, Roboto, Helvetica, Arial, sans-serif; font-weight: 400;" data-final-font-size="26">
        <tspan x="500.0" dy="31.81px">Verify consensus on specific image regions used</tspan>
      </text>
      <rect id="ITEM_4_BODY_FRAME" x="500" y="732.5" width="860" height="72" fill="none"/>
      <text x="1460" y="718.5" text-anchor="end" font-size="18" font-weight="800" fill="var(--accent-4)" opacity="0.70">04</text>
    </g>
    <g filter="url(#svg79fc74b1-shadow)">
      <line x1="404.0" y1="910.0" x2="420.0" y2="910.0" stroke="var(--accent-5)" stroke-width="5" opacity="0.76" stroke-linecap="round"/>
      <rect id="ITEM_5_BG" x="420.0" y="844.0" width="1085" height="152" rx="22" fill="var(--panel)" fill-opacity="0.97" stroke="var(--accent-5)" stroke-width="2.5"/>
      <rect x="420.0" y="844.0" width="1085" height="152" rx="16" fill="url(#svg79fc74b1-universal-surface-sheen)" opacity="0.88"/>
      <rect x="420.0" y="844.0" width="14" height="132" rx="7" fill="var(--accent-5)" fill-opacity="0.90"/>
      <circle id="ITEM_5_PAD" cx="360" cy="910.0" r="46" fill="var(--icon-pad-bg)" opacity="0.95" fill-opacity="0.9" stroke-width="2" stroke="var(--primary-text)"/>
      <circle id="ITEM_5_PAD_INNER" cx="360" cy="910.0" r="35.88" fill="var(--accent-2)" fill-opacity="0.22"/>
      <circle cx="360" cy="910.0" r="38" fill="none" stroke="var(--accent-5)" stroke-width="3" stroke-dasharray="6 4"/>
      <g id="ITEM_5_ICON" transform="translate(324, 874.0)" data-icon-size="72" stroke-dasharray="6 4">
        <g transform="translate(0.0,0.0) scale(5.142857142857143)" vector-effect="non-scaling-stroke" stroke-width="2.58" stroke-linecap="round" stroke-linejoin="round" stroke-opacity="1.0">
          <path id="Vector 138" stroke="#f1f5f9" d="M3.75 13.5001H1.42857C0.915736 13.5001 0.5 13.0843 0.5 12.5715v-2.3214" vector-effect="non-scaling-stroke" fill="none"/>
          <path id="Vector 902" stroke="#f1f5f9" d="M13.5 10.2501v2.3214c0 0.5128 -0.4157 0.9286 -0.9286 0.9286H10.25" vector-effect="non-scaling-stroke" fill="none"/>
          <path id="Vector 901" stroke="#f1f5f9" d="M10.25 0.5h2.3214c0.5129 0 0.9286 0.415736 0.9286 0.92857V3.75" vector-effect="non-scaling-stroke" fill="none"/>
          <path id="Vector 900" stroke="#f1f5f9" d="M0.5 3.74998V1.42856c0 -0.51284 0.415736 -0.928575 0.92857 -0.928575H3.75" vector-effect="non-scaling-stroke" fill="none"/>
          <path id="Vector 899" stroke="#f1f5f9" d="M0.5 6.99996h13" vector-effect="non-scaling-stroke" fill="none"/>
        </g>
      </g>
      <text id="ITEM_5_HEAD" x="500.0" y="862.0" text-anchor="start" font-weight="800" font-size="30" fill="var(--accent-2)" data-bg-id="ITEM_5_BG" fill-opacity="1.0" stroke="none" style="font-size: 30px; font-family: Inter, Segoe UI, Kalam, Roboto, Helvetica, Arial, sans-serif; font-weight: 700; letter-spacing:-0.4px;" data-final-font-size="30">
        <tspan x="500.0" dy="27.13px">Agreement</tspan>
      </text>
      <rect id="ITEM_5_HEAD_FRAME" x="500" y="862.0" width="760" height="32" fill="none"/>
      <text id="ITEM_5_BODY" x="500.0" y="900.0" text-anchor="start" font-size="24" fill="var(--primary-text)" data-bg-id="ITEM_5_BG" style="font-size: 26px; font-family: Inter, Segoe UI, Kalam, Roboto, Helvetica, Arial, sans-serif; font-weight: 400;" data-final-font-size="26">
        <tspan x="500.0" dy="31.81px">Establish baseline of shared physical image data</tspan>
      </text>
      <rect id="ITEM_5_BODY_FRAME" x="500" y="900.0" width="860" height="72" fill="none"/>
      <text x="1460" y="886.0" text-anchor="end" font-size="18" font-weight="800" fill="var(--accent-5)" opacity="0.70">05</text>
    </g>
  </g>
</svg>
