<?xml version='1.0' encoding='utf-8'?>
<svg xmlns="http://www.w3.org/2000/svg" width="1920" height="1080" viewBox="0 0 1920 1080" data-theme="light">
  <style>
        @font-face {
            font-family: 'Inter';
            src: url('assets/fonts/Inter-Regular.ttf') format('truetype');
            font-weight: 400;
            font-style: normal;
            font-display: swap;
        }
        @font-face {
            font-family: 'Inter';
            src: url('assets/fonts/Inter-Bold.ttf') format('truetype');
            font-weight: 600;
            font-style: normal;
            font-display: swap;
        }
        @font-face {
            font-family: 'Inter';
            src: url('assets/fonts/Inter-Bold.ttf') format('truetype');
            font-weight: 800;
            font-style: normal;
            font-display: swap;
        }
        
:root {
    --background: #f8fafc;
    --panel: #ffffff;
    --primary-text: #0f172a;
    --muted-text: #64748b;
    --inverse-text: #ffffff;
    --border: #e2e8f0;
    --shadow-color: #000000;
    --icon-pad-bg: #1e293b;
    --art-glow: #0891b2;
    --art-glow-opacity: 0.10;
    --art-sheen: #ffffff;
    --art-sheen-opacity: 0.34;
    --art-shadow: #0f172a;
    --art-shadow-opacity: 0.14;
    --art-muted-line: #94a3b8;
    --art-panel-tint: #f1f5f9;
    --font-family: 'Inter', 'Segoe UI', 'Kalam', Roboto, Helvetica, Arial, sans-serif;
    --radius-xl: 16px;
    --font-family-headline: 'Inter', 'Segoe UI', 'Kalam', Roboto, Helvetica, Arial, sans-serif;
    --font-family-body: 'Inter', 'Segoe UI', 'Kalam', Roboto, Helvetica, Arial, sans-serif;
    --font-heading: 'Inter', 'Segoe UI', 'Kalam', Roboto, Helvetica, Arial, sans-serif;
    --font-body: 'Inter', 'Segoe UI', 'Kalam', Roboto, Helvetica, Arial, sans-serif;
    --font-size-h1: 56px;
    --font-size-h2: 40px;
    --font-size-h3: 28px;
    --font-size-body: 24px;
    --font-size-caption: 18px;
    --secondary-text: var(--muted-text);
    --panel-border: var(--border);
    --font-weight-normal: 400;
    --font-weight-medium: 500;
    --font-weight-semibold: 600;
    --font-weight-bold: 700;
    --spacing-gutter-pct: 0.07;
    --spacing-top-pct: 0.15;
    --spacing-bottom-pct: 0.07;
    --spacing-title-y-pct: 0.055;
    --accent-1: #2563eb;
    --accent-2: #16a34a;
    --accent-3: #ea580c;
    --accent-4: #7c3aed;
    --accent-5: #0284c7;
    --accent-6: #475569;
}
:root[data-theme="dark"] {
    --background: #0f172a;
    --panel: #1e293b;
    --primary-text: #f1f5f9;
    --muted-text: #94a3b8;
    --inverse-text: #0f172a;
    --border: #334155;
    --shadow-color: #000000;
    --icon-pad-bg: #1e293b;
    --art-glow: #7dd3fc;
    --art-glow-opacity: 0.18;
    --art-sheen: #ffffff;
    --art-sheen-opacity: 0.18;
    --art-shadow: #000000;
    --art-shadow-opacity: 0.28;
    --art-muted-line: #64748b;
    --art-panel-tint: #1e293b;
    --accent-1: #60a5fa;
    --accent-2: #4ade80;
    --accent-3: #f97316;
    --accent-4: #a78bfa;
    --accent-5: #38bdf8;
    --accent-6: #94a3b8;
}
:root[data-theme="light"] {
    --background: #f8fafc;
    --panel: #ffffff;
    --primary-text: #0f172a;
    --muted-text: #64748b;
    --inverse-text: #ffffff;
    --border: #e2e8f0;
    --shadow-color: #000000;
    --icon-pad-bg: #1e293b;
    --art-glow: #0891b2;
    --art-glow-opacity: 0.10;
    --art-sheen: #ffffff;
    --art-sheen-opacity: 0.34;
    --art-shadow: #0f172a;
    --art-shadow-opacity: 0.14;
    --art-muted-line: #94a3b8;
    --art-panel-tint: #f1f5f9;
    --accent-1: #2563eb;
    --accent-2: #16a34a;
    --accent-3: #ea580c;
    --accent-4: #7c3aed;
    --accent-5: #0284c7;
    --accent-6: #475569;
}</style>
  <rect x="0" y="0" width="1.92E+3" height="1.08E+3" fill="#252a34" stroke="none" id="programmatic_background"/>
  <line id="HEADER_DECOR" x1="960.0" x2="1080.0" y1="135.0" y2="135.0" stroke="var(--accent-1)" stroke-width="6" stroke-linecap="round"/>
  <defs>
    <pattern id="svgf2e9f846-napkin-hatch" patternUnits="userSpaceOnUse" width="12" height="12">
      <path d="M -3 12 L 12 -3 M 0 15 L 15 0" fill="none" stroke="var(--primary-text)" stroke-width="1" stroke-opacity="0.05"/>
    </pattern>
    <filter id="svgf2e9f846-shadow" x="-30%" y="-30%" width="160%" height="160%">
      <feDropShadow dx="0" dy="2" stdDeviation="3" flood-color="#000000" flood-opacity="0.08"/>
      <feDropShadow dx="0" dy="6" stdDeviation="10" flood-color="#000000" flood-opacity="0.12"/>
    </filter>
    <marker id="svgf2e9f846-arrowhead" markerWidth="10" markerHeight="10" refX="9" refY="5" orient="auto">
      <path d="M 0 0 L 10 5 L 0 10 Z" fill="var(--accent-1)"/>
    </marker>
    <filter id="svgf2e9f846-text-glow" x="-20%" y="-20%" width="140%" height="140%">
      <feDropShadow dx="0" dy="0" stdDeviation="2" flood-color="#000000" flood-opacity="0.4"/>
    </filter>
    <radialGradient id="svgf2e9f846-universal-edge-vignette" cx="50%" cy="50%" r="72%">
      <stop offset="0%" stop-color="var(--background)" stop-opacity="0"/>
      <stop offset="72%" stop-color="var(--background)" stop-opacity="0.12"/>
      <stop offset="100%" stop-color="var(--primary-text)" stop-opacity="0.08"/>
    </radialGradient>
    <linearGradient id="svgf2e9f846-universal-surface-sheen" x1="0%" y1="0%" x2="100%" y2="100%">
      <stop offset="0%" stop-color="var(--art-sheen)" stop-opacity="var(--art-sheen-opacity)"/>
      <stop offset="46%" stop-color="var(--art-sheen)" stop-opacity="0.035"/>
      <stop offset="100%" stop-color="var(--art-panel-tint)" stop-opacity="0.14"/>
    </linearGradient>
    <radialGradient id="svgf2e9f846-universal-icon-aura" cx="50%" cy="42%" r="64%">
      <stop offset="0%" stop-color="var(--art-glow)" stop-opacity="var(--art-glow-opacity)"/>
      <stop offset="100%" stop-color="var(--background)" stop-opacity="0"/>
    </radialGradient>
    <linearGradient id="svgf2e9f846-myth-card-sheen" x1="0%" y1="0%" x2="100%" y2="100%">
      <stop offset="0%" stop-color="var(--inverse-text)" stop-opacity="0.18"/>
      <stop offset="56%" stop-color="var(--inverse-text)" stop-opacity="0.03"/>
      <stop offset="100%" stop-color="var(--background)" stop-opacity="0.12"/>
    </linearGradient>
  </defs>
  <rect width="100%" height="100%" fill="var(--background)" id="CANVAS_BG"/>
  <rect width="100%" height="100%" fill="url(#svgf2e9f846-napkin-hatch)"/>
  <rect id="UNIVERSAL_EDGE_VIGNETTE" width="100%" height="100%" fill="url(#svgf2e9f846-universal-edge-vignette)" opacity="0.62"/>
  <text id="TITLE" x="960.0" y="59" text-anchor="middle" font-weight="800" font-size="56" fill="#0f172a" style="font-size: 60px; font-family: Inter, Segoe UI, Kalam, Roboto, Helvetica, Arial, sans-serif; font-weight: 700; letter-spacing:-1.2px;" data-final-font-size="60">
    <tspan x="960.0" dy="68.00px">Methodology for Controlled Caution</tspan>
  </text>
  <rect id="TITLE_FRAME" x="134" y="59" width="1652" height="103" fill="none"/>
  <g transform="translate(0, 190) scale(1.0)">
    <path d="M 920 -8 C 950 80 950 720 920 808" stroke="var(--primary-text)" stroke-width="2" stroke-opacity="0.10" fill="none"/>
    <path d="M 1000 -8 C 970 80 970 720 1000 808" stroke="var(--primary-text)" stroke-width="2" stroke-opacity="0.10" fill="none"/>
    <text x="480.0" y="0" text-anchor="middle" font-weight="900" font-size="52" fill="var(--accent-1)">MYTHS</text>
    <text x="1440.0" y="0" text-anchor="middle" font-weight="900" font-size="52" fill="var(--accent-2)">REALITY</text>
    <!-- Row 1 - cards at y=130 -->
    <g transform="translate(480.0, 130.0)">
      <rect id="ITEM_1_ACCENT_BG" x="-400" y="-110" width="800" height="245" rx="24" fill="var(--accent-6)" fill-opacity="1.0"/>
      <rect id="ITEM_1_BG" x="-400" y="-110" width="800" height="245" rx="18" fill="var(--panel)" stroke="var(--accent-1)" filter="url(#svgf2e9f846-shadow)" stroke-width="3"/>
      <rect x="-388" y="-98" width="776" height="221" rx="16" fill="url(#svgf2e9f846-myth-card-sheen)" opacity="0.92"/>
      <circle id="ITEM_1_PAD" cx="-330" cy="-40" r="46" fill="var(--icon-pad-bg)" stroke="var(--background)" stroke-width="2" stroke-opacity="0.65" opacity="0.94" fill-opacity="0.9"/>
      <circle id="ITEM_1_PAD_INNER" cx="-330" cy="-40" r="35.88" fill="var(--accent-6)" fill-opacity="0.22"/>
      <circle cx="-330" cy="-40" r="34" fill="none" stroke="var(--accent-1)" stroke-width="3" stroke-dasharray="6 4"/>
      <g id="ITEM_1_ICON" transform="translate(-358, -68)" data-icon-size="56" stroke-dasharray="6 4">
        <g transform="translate(-12.286315789473687,-12.286315789473687) scale(0.1573684210526316)" vector-effect="non-scaling-stroke" fill="#f1f5f9" fill-opacity="1.0" stroke="none">
          <path fill="#f1f5f9" d="M295.568 31.755c-88.873 1.013-164.237 83.15-146.14 154.222c3.112 1.68 6.114 3.713 8.976 6.012c94.364-20.635 186.207-37.25 274.717-69.38c-4.396-11.362-8.926-26.62-15.104-32.857c-38.564-42.043-81.91-58.46-122.448-57.998zm162.787 100.527c-92.984 36.365-188.555 54.132-285.513 75.08c3 4.306 5.436 8.95 6.91 13.865c16.698.56 33.29.95 49.81 1.188c2.315-11.524 9.915-22.267 22.616-27.496l.338-.14l.347-.11a34.9 34.9 0 0 1 11.944-1.66c3.87.14 7.57.94 10.93 2.268c6.725 2.66 12.12 7.126 16.605 12.01c4.4 4.79 8.038 10.1 11.054 15.06c56.644-.994 112.656-4.228 168.79-10.304c-.018-3.805-.042-7.543-.096-11.22c-16.977-1.565-36.94-.35-64.217 7.667c22.82-11.948 39.826-19.518 60.78-19.31q1.544.014 3.122.086c-.45-10.747-1.432-20.984-3.654-30.824c-33.557 19.84-62.436 23.53-105.98 26.362c50.238-10.525 79.007-24.07 102.546-38.356a94 94 0 0 0-6.33-14.166zM132.56 199.17c-.682-.004-1.15.09-1.45.194c-4.756 2.414-9.748 9.214-12.018 17.453c-2.215 8.037-1.57 16.664.984 21.662c4.615 4.572 14.302 6.43 24.166 4.493c9.68-1.9 17.22-7.725 18.862-10.728c.035-5.966-4.99-16.103-12.74-23.406c-4.08-3.848-8.656-6.877-12.417-8.417c-1.88-.77-3.444-1.11-4.63-1.217a9 9 0 0 0-.756-.037zm131.753 11.76c-1.675-.076-3.475.16-5.56.786c-8.19 3.47-11.016 8.43-11.85 16.082c-.843 7.75 1.63 18.15 6.663 27.836s12.528 18.6 20.133 23.953s14.49 6.963 20.238 5.017l5.77 17.05c-12.697 4.3-25.788.1-36.37-7.348c-10.582-7.45-19.485-18.33-25.744-30.372c-3.893-7.49-6.8-15.45-8.108-23.474c-16.447-.24-32.96-.625-49.57-1.178c-2.164 5.224-5.78 9.34-10.246 12.565c5.82 11.84 12.81 22.992 21.11 33.396l2.597 3.252l-.795 4.084c-6.046 31.008-13.87 62.623-36.97 82.58c31.778 52.62 70.812 94.726 150.777 102.636c7.516-26.908 14.15-57.853 60.483-89.71l2.422-1.663l2.937.084c40.79 1.18 61.765-5.75 71.61-18.506c4.322-5.6 7.014-13.152 8.17-22.847l-39.04-.797l.366-17.996l39.19.8c-.368-8.815-1.513-18.807-3.42-30.08l-1.745-10.327l36.203-.586c-1.14-6.856-3.99-16.375-8.29-25.238c-6.218-12.83-15.555-24.903-19.124-27.382l-2.123-1.477c-50.237 4.848-100.406 7.483-151.02 8.347c-7.65 3.924-5.706 2.888-7.813 4.068c-4.162-7.43-9.574-17.904-16.11-25.02c-3.27-3.56-6.693-6.154-9.968-7.45c-1.584-.625-3.133-1.01-4.807-1.086zm-157.125 40.21c-6.954 14.03-14.456 30.194-22.5 46.296c-9.06 18.146-18.786 36.2-29.49 51.268c-8.14 11.457-16.796 21.348-26.764 27.975c9.864 13.877 17.987 25.48 24.654 35.674c4.344-12.038 9.388-24.587 14.734-37.382c11.19-26.778 23.637-54.487 33.354-79.553c5.43-14.012 9.954-27.268 12.98-38.853a32.6 32.6 0 0 1-6.97-5.428zm38.093 9.92c-4.485.71-9.156.97-13.766.61c-3.28 12.524-8.04 26.025-13.555 40.255c-9.972 25.724-22.472 53.52-33.53 79.986c-11.06 26.467-20.645 51.69-24.836 71.397c-2.096 9.855-2.788 18.303-2.033 24.456c.114.927.3 1.68.463 2.492a52 52 0 0 1 10.29-5.897c10.15-4.394 22.763-7.508 35.332-9.756c12.568-2.247 24.964-3.555 34.462-3.857c.97-.03 1.77-.006 2.674-.018c-10.392-58.63-2.174-142.745 4.5-199.666z" vector-effect="non-scaling-stroke" stroke="none"/>
        </g>
      </g>
      <text id="ITEM_1_HEAD" x="0.0" y="-85.0" text-anchor="middle" font-weight="bold" font-size="28" fill="var(--accent-6)" data-bg-id="ITEM_1_BG" fill-opacity="1.0" style="font-size: 30px; font-family: Inter, Segoe UI, Kalam, Roboto, Helvetica, Arial, sans-serif; font-weight: 700; letter-spacing:-0.4px;" data-final-font-size="30">
        <tspan x="0.0" dy="37.75px">Blind Reading</tspan>
      </text>
      <rect id="ITEM_1_HEAD_FRAME" x="-310" y="-85" width="620" height="50" fill="none"/>
      <text id="ITEM_1_BODY" x="0.0" y="-20.0" text-anchor="middle" font-size="22" fill="var(--primary-text)" opacity="0.88" data-bg-id="ITEM_1_BG" style="font-size: 26px; font-family: Inter, Segoe UI, Kalam, Roboto, Helvetica, Arial, sans-serif; font-weight: 400;" data-final-font-size="26">
        <tspan x="0.0" dy="51.40px">Inspect marks without prior knowledge of the scenario</tspan>
      </text>
      <rect id="ITEM_1_BODY_FRAME" x="-310" y="-20" width="620" height="155" fill="none"/>
    </g>
    <g transform="translate(1440.0, 130.0)">
      <rect id="ITEM_2_ACCENT_BG" x="-400" y="-110" width="800" height="245" rx="24" fill="var(--accent-2)" fill-opacity="1.0"/>
      <rect id="ITEM_2_BG" x="-400" y="-110" width="800" height="245" rx="18" fill="var(--panel)" stroke="var(--accent-2)" filter="url(#svgf2e9f846-shadow)" stroke-width="3"/>
      <rect x="-388" y="-98" width="776" height="221" rx="16" fill="url(#svgf2e9f846-myth-card-sheen)" opacity="0.92"/>
      <circle id="ITEM_2_PAD" cx="330" cy="-40" r="46" fill="var(--icon-pad-bg)" stroke="var(--background)" stroke-width="2" stroke-opacity="0.65" opacity="0.94" fill-opacity="0.9"/>
      <circle id="ITEM_2_PAD_INNER" cx="330" cy="-40" r="35.88" fill="var(--accent-2)" fill-opacity="0.22"/>
      <circle cx="330" cy="-40" r="34" fill="none" stroke="var(--accent-2)" stroke-width="3" stroke-dasharray="6 4"/>
      <g id="ITEM_2_ICON" transform="translate(302, -68)" data-icon-size="56" stroke-dasharray="6 4">
        <g transform="translate(-10.920677966101696,-10.920677966101698) scale(3.243389830508475)" vector-effect="non-scaling-stroke" fill="#f1f5f9" fill-opacity="1.0" stroke="none">
          <path fill="#f1f5f9" d="M4 7H2v14c0 1.1.9 2 2 2h14v-2H4M20 3h-3.2c-.4-1.2-1.5-2-2.8-2s-2.4.8-2.8 2H8c-1.1 0-2 .9-2 2v12c0 1.1.9 2 2 2h12c1.1 0 2-.9 2-2V5c0-1.1-.9-2-2-2m-6 0c.6 0 1 .5 1 1s-.5 1-1 1s-1-.5-1-1s.4-1 1-1" vector-effect="non-scaling-stroke" stroke="none"/>
        </g>
      </g>
      <text id="ITEM_2_HEAD" x="0.0" y="-85.0" text-anchor="middle" font-weight="bold" font-size="28" fill="var(--primary-text)" data-bg-id="ITEM_2_BG" fill-opacity="1.0" style="font-size: 30px; font-family: Inter, Segoe UI, Kalam, Roboto, Helvetica, Arial, sans-serif; font-weight: 700; letter-spacing:-0.4px;" data-final-font-size="30">
        <tspan x="0.0" dy="37.75px">Competing Hypotheses</tspan>
      </text>
      <rect id="ITEM_2_HEAD_FRAME" x="-310" y="-85" width="620" height="50" fill="none"/>
      <text id="ITEM_2_BODY" x="0.0" y="-20.0" text-anchor="middle" font-size="22" fill="var(--primary-text)" opacity="0.88" data-bg-id="ITEM_2_BG" style="font-size: 26px; font-family: Inter, Segoe UI, Kalam, Roboto, Helvetica, Arial, sans-serif; font-weight: 400;" data-final-font-size="26">
        <tspan x="0.0" dy="45.42px">Test multiple explanations against the same</tspan>
        <tspan x="0.0" dy="29.90px">visual data</tspan>
      </text>
      <rect id="ITEM_2_BODY_FRAME" x="-310" y="-20" width="620" height="155" fill="none"/>
    </g>
    <!-- Row 2 - cards at y=400 -->
    <g transform="translate(480.0, 400.0)">
      <rect id="ITEM_3_ACCENT_BG" x="-400" y="-110" width="800" height="245" rx="24" fill="var(--accent-3)" fill-opacity="0.15"/>
      <rect id="ITEM_3_BG" x="-400" y="-110" width="800" height="245" rx="18" fill="var(--panel)" stroke="var(--accent-3)" filter="url(#svgf2e9f846-shadow)" stroke-width="3"/>
      <rect x="-388" y="-98" width="776" height="221" rx="16" fill="url(#svgf2e9f846-myth-card-sheen)" opacity="0.92"/>
      <circle id="ITEM_3_PAD" cx="-330" cy="-40" r="46" fill="var(--icon-pad-bg)" stroke="var(--background)" stroke-width="2" stroke-opacity="0.65" opacity="0.94"/>
      <circle id="ITEM_3_PAD_INNER" cx="-330" cy="-40" r="35.88" fill="var(--accent-3)" fill-opacity="0.22"/>
      <circle cx="-330" cy="-40" r="34" fill="none" stroke="var(--accent-3)" stroke-width="3" stroke-dasharray="6 4"/>
      <g id="ITEM_3_ICON" transform="translate(-358, -68)" data-icon-size="56" stroke-dasharray="6 4">
        <g transform="translate(-10.920677966101698,-10.920677966101696) scale(3.243389830508475)" vector-effect="non-scaling-stroke" stroke-width="2.38" stroke-linecap="round" stroke-linejoin="round" stroke-opacity="1.0">
          <rect width="20" height="14" x="2" y="3" rx="2" vector-effect="non-scaling-stroke" fill="none" stroke="#f1f5f9"/>
          <line x1="8" x2="16" y1="21" y2="21" vector-effect="non-scaling-stroke" fill="none" stroke="#f1f5f9"/>
          <line x1="12" x2="12" y1="17" y2="21" vector-effect="non-scaling-stroke" fill="none" stroke="#f1f5f9"/>
        </g>
      </g>
      <text id="ITEM_3_HEAD" x="0.0" y="-85.0" text-anchor="middle" font-weight="bold" font-size="28" fill="var(--primary-text)" data-bg-id="ITEM_3_BG" style="font-size: 30px; font-family: Inter, Segoe UI, Kalam, Roboto, Helvetica, Arial, sans-serif; font-weight: 700; letter-spacing:-0.4px;" data-final-font-size="30">
        <tspan x="0.0" dy="37.75px">Standardized Processing</tspan>
      </text>
      <rect id="ITEM_3_HEAD_FRAME" x="-310" y="-85" width="620" height="50" fill="none"/>
      <text id="ITEM_3_BODY" x="0.0" y="-20.0" text-anchor="middle" font-size="22" fill="var(--primary-text)" opacity="0.88" data-bg-id="ITEM_3_BG" style="font-size: 26px; font-family: Inter, Segoe UI, Kalam, Roboto, Helvetica, Arial, sans-serif; font-weight: 400;" data-final-font-size="26">
        <tspan x="0.0" dy="45.42px">Apply independent image-processing standards</tspan>
        <tspan x="0.0" dy="29.90px">to all fragments</tspan>
      </text>
      <rect id="ITEM_3_BODY_FRAME" x="-310" y="-20" width="620" height="155" fill="none"/>
    </g>
    <g transform="translate(1440.0, 400.0)">
      <rect id="ITEM_4_ACCENT_BG" x="-400" y="-110" width="800" height="245" rx="24" fill="var(--accent-4)" fill-opacity="0.15"/>
      <rect id="ITEM_4_BG" x="-400" y="-110" width="800" height="245" rx="18" fill="var(--panel)" stroke="var(--accent-4)" filter="url(#svgf2e9f846-shadow)" stroke-width="3"/>
      <rect x="-388" y="-98" width="776" height="221" rx="16" fill="url(#svgf2e9f846-myth-card-sheen)" opacity="0.92"/>
      <circle id="ITEM_4_PAD" cx="330" cy="-40" r="46" fill="var(--icon-pad-bg)" stroke="var(--background)" stroke-width="2" stroke-opacity="0.65" opacity="0.94"/>
      <circle id="ITEM_4_PAD_INNER" cx="330" cy="-40" r="35.88" fill="var(--accent-4)" fill-opacity="0.22"/>
      <circle cx="330" cy="-40" r="34" fill="none" stroke="var(--accent-4)" stroke-width="3" stroke-dasharray="6 4"/>
      <g id="ITEM_4_ICON" transform="translate(302, -68)" data-icon-size="56" stroke-dasharray="6 4">
        <g transform="translate(-13.00571428571429,-13.005714285714289) scale(2.562857142857143)">
          <path d="M8 26H27V4C27 2.89543 26.1046 2 25 2H8V26Z" fill="#533566"/>
          <path d="M6 27H27V29H6V27Z" fill="#D3D3D3"/>
          <path d="M12.5 7C12.5 6.44772 12.9477 6 13.5 6H18.5C19.0523 6 19.5 6.44772 19.5 7V9C19.5 9.55228 19.0523 10 18.5 10H13.5C12.9477 10 12.5 9.55228 12.5 9V7Z" fill="white"/>
          <path d="M6.5 2C5.67157 2 5 2.67157 5 3.5V28H6C6 27.4477 6.44772 27 7 27H8V2H6.5Z" fill="#321B41"/>
          <path d="M6.5 26C5.67157 26 5 26.6716 5 27.5V28.5C5 29.3284 5.67157 30 6.5 30H25.5C26.1531 30 26.7087 29.5826 26.9146 29H7C6.44772 29 6 28.5523 6 28C6 27.4477 6.44772 27 7 27H27V26H6.5Z" fill="#6B438B"/>
          <path d="M23 2H24V30H23V2Z" fill="#6B438B"/>
        </g>
      </g>
      <text id="ITEM_4_HEAD" x="0.0" y="-85.0" text-anchor="middle" font-weight="bold" font-size="28" fill="var(--accent-4)" data-bg-id="ITEM_4_BG" style="font-size: 30px; font-family: Inter, Segoe UI, Kalam, Roboto, Helvetica, Arial, sans-serif; font-weight: 700; letter-spacing:-0.4px;" data-final-font-size="30">
        <tspan x="0.0" dy="37.75px">Uncertainty Reporting</tspan>
      </text>
      <rect id="ITEM_4_HEAD_FRAME" x="-310" y="-85" width="620" height="50" fill="none"/>
      <text id="ITEM_4_BODY" x="0.0" y="-20.0" text-anchor="middle" font-size="22" fill="var(--primary-text)" opacity="0.88" data-bg-id="ITEM_4_BG" style="font-size: 26px; font-family: Inter, Segoe UI, Kalam, Roboto, Helvetica, Arial, sans-serif; font-weight: 400;" data-final-font-size="26">
        <tspan x="0.0" dy="45.42px">Honest reporting of ambiguity at every</tspan>
        <tspan x="0.0" dy="29.90px">decipherment step</tspan>
      </text>
      <rect id="ITEM_4_BODY_FRAME" x="-310" y="-20" width="620" height="155" fill="none"/>
    </g>
    <!-- Row 3 - cards at y=670 -->
    <g transform="translate(480.0, 670.0)">
      <rect id="ITEM_5_ACCENT_BG" x="-400" y="-110" width="800" height="245" rx="24" fill="var(--accent-5)" fill-opacity="0.15"/>
      <rect id="ITEM_5_BG" x="-400" y="-110" width="800" height="245" rx="18" fill="var(--panel)" stroke="var(--accent-5)" filter="url(#svgf2e9f846-shadow)" stroke-width="3"/>
      <rect x="-388" y="-98" width="776" height="221" rx="16" fill="url(#svgf2e9f846-myth-card-sheen)" opacity="0.92"/>
      <circle id="ITEM_5_PAD" cx="-330" cy="-40" r="46" fill="var(--icon-pad-bg)" stroke="var(--background)" stroke-width="2" stroke-opacity="0.65" opacity="0.94"/>
      <circle id="ITEM_5_PAD_INNER" cx="-330" cy="-40" r="35.88" fill="var(--accent-5)" fill-opacity="0.22"/>
      <circle cx="-330" cy="-40" r="34" fill="none" stroke="var(--accent-5)" stroke-width="3" stroke-dasharray="6 4"/>
      <g id="ITEM_5_ICON" transform="translate(-358, -68)" data-icon-size="56" stroke-dasharray="6 4">
        <g transform="translate(-13.005714285714289,-13.005714285714289) scale(2.562857142857143)">
          <path d="M19.949 11.75H23.969C24.389 11.75 24.719 11.41 24.719 11C24.719 10.59 24.379 10.25 23.969 10.25H19.949C19.569 10.25 19.219 10.07 18.999 9.76999L16.629 6.51999C16.4584 6.2948 16.1854 6.19068 15.9243 6.22353C15.6985 6.22945 15.4794 6.33695 15.339 6.52999L12.969 9.76999C12.749 10.07 12.389 10.25 12.019 10.25H7.99902C7.58902 10.25 7.24902 10.59 7.24902 11C7.24902 11.41 7.58902 11.75 7.99902 11.75H12.019C12.869 11.75 13.679 11.34 14.179 10.66L15.9877 8.1874L17.789 10.65C18.289 11.34 19.099 11.75 19.949 11.75Z" fill="#9B9B9B"/>
          <path d="M15.249 4H16.749V28H15.249V4ZM13.0391 20.73C13.1291 20.88 13.2991 20.96 13.4591 20.96C13.5491 20.96 13.6391 20.94 13.6991 20.88C13.9291 20.73 13.9991 20.42 13.8491 20.19L8.47739 11.8516C8.41545 11.646 8.22717 11.5 7.99907 11.5C7.83813 11.5 7.54907 11.77 7.54907 11.77L2.15907 20.15C2.08907 20.23 2.04907 20.34 2.04907 20.46C2.04907 20.74 2.26907 20.96 2.54907 20.96C2.71907 20.96 2.87907 20.87 2.96907 20.73L7.49902 13.6964V20.8C7.49902 21.08 7.71902 21.3 7.99902 21.3C8.27902 21.3 8.49902 21.08 8.49902 20.8V13.6947L13.0391 20.73ZM29.0391 20.73C29.1291 20.88 29.2991 20.96 29.4591 20.96C29.5491 20.96 29.6391 20.94 29.6991 20.88C29.9291 20.73 29.9991 20.42 29.8491 20.19L24.4774 11.8516C24.4154 11.646 24.2272 11.5 23.9991 11.5C23.8381 11.5 23.64 11.655 23.5491 11.77L18.1591 20.15C18.0891 20.23 18.0491 20.34 18.0491 20.46C18.0491 20.74 18.2691 20.96 18.5491 20.96C18.7191 20.96 18.8791 20.87 18.9691 20.73L23.499 13.6964V20.8C23.499 21.08 23.719 21.3 23.999 21.3C24.279 21.3 24.499 21.08 24.499 20.8V13.6947L29.0391 20.73Z" fill="#D3D3D3"/>
          <path d="M17.5891 3.59C17.5891 4.46813 16.8772 5.18 15.9991 5.18C15.1209 5.18 14.4091 4.46813 14.4091 3.59C14.4091 2.71187 15.1209 2 15.9991 2C16.8772 2 17.5891 2.71187 17.5891 3.59Z" fill="#F9C23C"/>
          <path d="M9.58906 11C9.58906 11.8781 8.87719 12.59 7.99906 12.59C7.12092 12.59 6.40906 11.8781 6.40906 11C6.40906 10.1219 7.12092 9.41 7.99906 9.41C8.87719 9.41 9.58906 10.1219 9.58906 11Z" fill="#F9C23C"/>
          <path d="M2.01904 20.64C1.92904 20.32 2.16904 20 2.50904 20H13.489C13.829 20 14.069 20.32 13.979 20.64C13.239 23.2 10.849 25 7.99904 25C5.14904 25 2.75904 23.2 2.01904 20.64Z" fill="#F9C23C"/>
          <path d="M18.019 20.64C17.929 20.32 18.169 20 18.509 20H29.489C29.829 20 30.069 20.32 29.979 20.64C29.239 23.2 26.849 25 23.999 25C21.149 25 18.759 23.2 18.019 20.64Z" fill="#F9C23C"/>
          <path d="M23.3991 30C23.8791 30 24.1091 29.42 23.7591 29.09C21.7391 27.17 19.0091 26 15.9991 26C12.9891 26 10.2591 27.17 8.23908 29.09C7.88908 29.42 8.11908 30 8.59908 30H23.3991Z" fill="#F9C23C"/>
          <path d="M23.9991 12.59C24.8772 12.59 25.5891 11.8781 25.5891 11C25.5891 10.1219 24.8772 9.41 23.9991 9.41C23.1209 9.41 22.4091 10.1219 22.4091 11C22.4091 11.8781 23.1209 12.59 23.9991 12.59Z" fill="#F9C23C"/>
        </g>
      </g>
      <text id="ITEM_5_HEAD" x="0.0" y="-85.0" text-anchor="middle" font-weight="bold" font-size="28" fill="var(--primary-text)" data-bg-id="ITEM_5_BG" style="font-size: 30px; font-family: Inter, Segoe UI, Kalam, Roboto, Helvetica, Arial, sans-serif; font-weight: 700; letter-spacing:-0.4px;" data-final-font-size="30">
        <tspan x="0.0" dy="37.75px">Evidential Weighting</tspan>
      </text>
      <rect id="ITEM_5_HEAD_FRAME" x="-310" y="-85" width="620" height="50" fill="none"/>
      <text id="ITEM_5_BODY" x="0.0" y="-20.0" text-anchor="middle" font-size="22" fill="var(--primary-text)" opacity="0.88" data-bg-id="ITEM_5_BG" style="font-size: 26px; font-family: Inter, Segoe UI, Kalam, Roboto, Helvetica, Arial, sans-serif; font-weight: 400;" data-final-font-size="26">
        <tspan x="0.0" dy="45.42px">Lower the weight of claims that lack</tspan>
        <tspan x="0.0" dy="29.90px">reproducible results</tspan>
      </text>
      <rect id="ITEM_5_BODY_FRAME" x="-310" y="-20" width="620" height="155" fill="none"/>
    </g>
  </g>
</svg>
